# xmcd
#
# Track frame offsets: 
#        180
#        12667
#        25652
#        38319
#        49301
#        62531
#        76662
#        92889
#        107312
#        121625
#        136056
#        149023
#        165550
#        182794
#        194756
#        214363
#        229207
#        243216
#        256937
#        269232
#        282740
#
# Disc length: 3960 seconds
#
# Revision: 0
# Processed by: cddbd v1.5.2PL0 Copyright (c) Steve Scherf et al.
# Submitted via: ExactAudioCopy v0.95b4
#
DISCID=2d0f7615
DTITLE=Various Artist - 125 Blues Hits 2
DYEAR=2006
DGENRE=Blues
TTITLE0=Good liquor gonna carry me down - Big Bill Broonzy
TTITLE1=Low cotton - Josh White
TTITLE2=Early in the morning - Sonny Boy Williamson
TTITLE3=I'm just a lady's man - Jimmy Witherspoon
TTITLE4=Grass cutter blues - Alice Moore
TTITLE5=Milk cow blues - Kokomo Arnold
TTITLE6=Beale street mama - Bessie Smith
TTITLE7=I be bound to write to you - Muddy Waters
TTITLE8=Alberta - Leadbelly
TTITLE9=Chicago blues - Arthur Big Boy Crudup
TTITLE10=Born for but luck - Brownie McGhee
TTITLE11=Helpless blues - John Lee Hooker
TTITLE12=The army blues - David Edwards
TTITLE13=Shake that thing - Kokomo Arnold
TTITLE14=John Hardy - Leadbelly
TTITLE15=Four hands are better than two - Lonnie Johnson
TTITLE16=Red river blues - Henry Thomas
TTITLE17=Call it stormy monday - T-Bone Walker
TTITLE18=15C a day - Roosevelt Sykes
TTITLE19=Night time blues - Ma Rainey and her Georgia Band
TTITLE20=Woman in my life - John Lee Hooker
EXTD=
EXTT0=
EXTT1=
EXTT2=
EXTT3=
EXTT4=
EXTT5=
EXTT6=
EXTT7=
EXTT8=
EXTT9=
EXTT10=
EXTT11=
EXTT12=
EXTT13=
EXTT14=
EXTT15=
EXTT16=
EXTT17=
EXTT18=
EXTT19=
EXTT20=
PLAYORDER=
